<svg width="90" height="38" viewBox="0 0 90 38" fill="none" xmlns="http://www.w3.org/2000/svg">
<path d="M24.4798 30.5901C25.0996 30.5901 25.498 30.2802 25.498 29.6162C25.498 29.0407 25.2767 28.6865 24.4356 28.6865C23.8601 28.6865 23.4617 28.9521 23.4617 29.6162C23.4617 30.2359 23.8158 30.5901 24.4798 30.5901Z" fill="#003300"/>
<path d="M27.3576 30.5028C27.756 30.5028 28.0216 30.4142 28.1101 30.0158C28.1987 29.5289 28.1987 29.4403 28.2872 29.4403C28.5086 29.4403 28.5086 30.5913 30.4564 30.5913C32.0943 30.5913 33.1125 29.219 33.1125 27.2269C33.1125 25.0578 32.1386 23.951 30.5892 23.951C29.0398 23.951 28.7742 24.8364 28.5971 24.8364C28.5086 24.8364 28.4643 24.7921 28.4643 24.5708C28.4643 24.3495 28.5086 24.1724 28.5086 23.5526V22.2688C28.5086 21.8262 28.42 21.5605 27.6232 21.5605C26.9149 21.5605 26.6936 21.7819 26.6936 22.2688C26.6936 26.4743 26.6936 28.9091 26.6936 29.883C26.6493 30.2814 26.8264 30.5028 27.3576 30.5028ZM29.8809 25.5004C30.7663 25.5004 31.2975 25.9431 31.2975 27.2712C31.2975 28.555 30.6777 29.3075 29.7923 29.3075C28.9512 29.3075 28.3315 28.5992 28.3315 27.3597C28.3315 25.9431 28.9955 25.5004 29.8809 25.5004Z" fill="#003300"/>
<path d="M35.5926 29.8809V27.5789C35.5926 26.3394 36.1238 25.7196 37.1863 25.7196C37.806 25.7196 37.8946 25.3212 37.8946 24.8785C37.8946 24.3473 37.6732 24.1702 37.1863 24.1702C35.9025 24.1702 35.6811 25.2327 35.5041 25.2327C35.4155 25.2327 35.3713 25.1884 35.327 24.7457C35.2385 24.2588 35.1499 24.126 34.6187 24.126C34.0875 24.126 33.9547 24.2588 33.9547 24.6572C33.9547 25.0556 33.9104 26.605 33.9104 29.8366C33.9104 30.2793 34.1317 30.5006 34.7958 30.5006C35.4155 30.5449 35.5926 30.3236 35.5926 29.8809Z" fill="#003300"/>
<path d="M44.3569 29.8369C44.3569 29.4385 44.4011 25.4544 44.4011 24.7018C44.4011 24.2591 44.1355 24.1263 43.4715 24.1263C42.8075 24.1263 42.5861 24.3034 42.5861 24.6575C42.5861 25.0559 42.6304 25.5872 42.6304 27.0923C42.6304 28.4646 42.1877 29.1286 41.3466 29.1286C40.6383 29.1286 40.2399 28.5974 40.2399 27.4907C40.2399 26.8709 40.2842 24.8789 40.2842 24.6575C40.2842 24.1706 40.0186 24.082 39.3988 24.082C38.6905 24.082 38.5134 24.3034 38.5134 24.7018C38.5134 26.8709 38.5134 25.9856 38.5134 27.9334C38.5134 29.7484 39.2217 30.6338 40.6383 30.6338C42.409 30.6338 42.4533 29.35 42.6747 29.35C42.7632 29.35 42.7632 29.5713 42.8517 29.8369C42.9403 30.2353 43.1173 30.4567 43.6486 30.4567C44.1355 30.501 44.3569 30.2796 44.3569 29.8369Z" fill="#003300"/>
<path d="M48.5183 26.9146C47.146 26.6489 46.9247 26.4276 46.9247 25.9849C46.9247 25.5422 47.3231 25.3209 48.0314 25.3209C48.6069 25.3209 49.0053 25.498 49.3152 25.9849C49.4037 26.162 49.6251 26.3833 49.9349 26.3833C50.4219 26.3833 50.7318 26.162 50.7318 25.7636C50.7318 24.8782 49.9349 24.0371 48.0314 24.0371C46.6591 24.0371 45.2867 24.7011 45.2867 26.1177C45.2867 26.9588 45.6409 27.7557 47.4116 28.0655C48.8282 28.2869 49.2266 28.3754 49.2266 28.8181C49.2266 29.128 49.0053 29.4379 48.1199 29.4379C46.482 29.4379 46.6148 28.3754 45.818 28.3754C45.3753 28.3754 45.1982 28.5968 45.1982 29.0394C45.1982 29.6592 45.9065 30.7216 47.9429 30.7216C49.9792 30.7216 50.9088 29.8363 50.9088 28.7738C50.9088 27.8442 50.5547 27.2687 48.5183 26.9146Z" fill="#003300"/>
<path d="M54.495 29.3936C52.8571 29.3936 52.9899 28.3311 52.1931 28.3311C51.7504 28.3311 51.5733 28.5525 51.5733 28.9952C51.5733 29.6149 52.2816 30.6774 54.318 30.6774C56.3543 30.6774 57.284 29.792 57.284 28.7296C57.284 27.8442 56.9298 27.2687 54.8935 26.9146C53.5211 26.6489 53.2998 26.4276 53.2998 25.9849C53.2998 25.5422 53.6982 25.3209 54.4065 25.3209C54.982 25.3209 55.3804 25.498 55.6903 25.9849C55.7788 26.162 56.0002 26.3833 56.3101 26.3833C56.797 26.3833 57.1069 26.162 57.1069 25.7636C57.1069 24.8782 56.3101 24.0371 54.4065 24.0371C53.0342 24.0371 51.6619 24.7011 51.6619 26.1177C51.6619 26.9588 52.016 27.7557 53.7868 28.0655C55.2033 28.2869 55.6018 28.3754 55.6018 28.8181C55.5575 29.0837 55.3361 29.3936 54.495 29.3936Z" fill="#003300"/>
<path d="M59.8506 27.4904C60.1162 27.4904 63.0379 27.4904 63.3478 27.4904C63.8348 27.4904 64.0561 27.3576 64.0561 26.605C64.0561 24.9228 62.9494 23.9932 61.0458 23.9932C59.0095 23.9932 57.8585 25.3212 57.8585 27.2248C57.8585 29.3054 59.0538 30.6334 61.0458 30.6334C63.1265 30.6334 63.879 29.5267 63.879 28.907C63.879 28.5085 63.5691 28.2872 63.2593 28.2872C62.3739 28.2872 62.6395 29.2611 61.0901 29.2611C60.1605 29.2611 59.4965 28.6413 59.4965 27.8002C59.585 27.6232 59.585 27.4904 59.8506 27.4904ZM61.1344 25.2769C62.1968 25.2769 62.5952 25.8967 62.5952 26.3394C62.5952 26.5165 62.5067 26.605 62.2854 26.605H59.8949C59.6735 26.605 59.6293 26.5165 59.6293 26.3394C59.6293 25.941 60.0719 25.2769 61.1344 25.2769Z" fill="#003300"/>
<path d="M67.1121 29.3075C66.9792 29.3075 66.935 29.3518 66.8464 29.3518C66.6694 29.3518 66.6251 29.2633 66.6251 29.0419C66.6251 28.4222 66.6694 23.0214 66.6694 22.2688C66.6694 21.7376 66.4038 21.5605 65.8283 21.5605C65.2085 21.5605 64.9429 21.7819 64.9429 22.2246V29.0862C64.9429 30.0158 65.4299 30.6356 66.448 30.6356C67.2006 30.6356 67.5547 30.37 67.5547 29.8387C67.599 29.5289 67.4219 29.3075 67.1121 29.3075Z" fill="#003300"/>
<path d="M71.1399 26.9146C69.7676 26.6489 69.5463 26.4276 69.5463 25.9849C69.5463 25.5422 69.9447 25.3209 70.653 25.3209C71.2285 25.3209 71.6269 25.498 71.9368 25.9849C72.0253 26.162 72.2466 26.3833 72.5565 26.3833C73.0435 26.3833 73.3533 26.162 73.3533 25.7636C73.3533 24.8782 72.5565 24.0371 70.653 24.0371C69.2806 24.0371 67.9083 24.7011 67.9083 26.1177C67.9083 26.9588 68.2625 27.7557 70.0332 28.0655C71.4498 28.2869 71.8482 28.3754 71.8482 28.8181C71.8482 29.128 71.6269 29.4379 70.7415 29.4379C69.1036 29.4379 69.2364 28.3754 68.4395 28.3754C67.9969 28.3754 67.8198 28.5968 67.8198 29.0394C67.8198 29.6592 68.5281 30.7216 70.5644 30.7216C72.6008 30.7216 73.5304 29.8363 73.5304 28.7738C73.5747 27.8442 73.1763 27.2687 71.1399 26.9146Z" fill="#003300"/>
<path d="M81.2771 28.2443C80.5246 27.0491 78.9752 25.4111 77.2487 25.4111C76.0977 25.4111 74.991 26.2522 74.991 27.7131C74.991 29.0854 76.2748 29.9708 77.3815 29.9708C78.621 29.9708 79.1965 29.5724 80.259 29.7937C81.0558 29.9708 81.4985 30.3692 81.7198 30.5463C81.8084 30.6348 81.9412 30.6791 82.0297 30.5905C82.1182 30.5463 82.1625 30.4135 82.1182 30.1479C81.9854 29.5281 81.6313 28.8198 81.2771 28.2443Z" fill="#003300"/>
<path d="M87.7411 25.4111C86.0146 25.4111 84.4652 27.0491 83.7127 28.2443C83.3142 28.8641 83.0044 29.5281 82.8716 30.1479C82.8273 30.4135 82.8716 30.5463 82.9601 30.5905C83.0486 30.6348 83.1814 30.6348 83.27 30.5463C83.4913 30.3249 83.934 29.9265 84.7308 29.7937C85.749 29.5724 86.3688 29.9708 87.6083 29.9708C88.715 29.9708 89.9988 29.0854 89.9988 27.7131C90.043 26.2522 88.8921 25.4111 87.7411 25.4111Z" fill="#003300"/>
<path d="M84.6413 26.2081C85.1283 25.7654 85.4382 25.4555 85.7038 25.1014C85.9251 24.7915 86.1465 24.3488 86.1465 23.7733C86.1465 22.4453 85.084 21.5156 83.933 21.5156C83.3133 21.5156 82.7821 21.7812 82.4722 22.1797C82.1623 21.7812 81.6311 21.5156 81.0113 21.5156C79.8604 21.5156 78.7979 22.4453 78.7979 23.7733C78.7979 24.3488 79.0193 24.7915 79.2406 25.1014C79.4619 25.4555 79.8161 25.7654 80.303 26.2081C81.0113 26.8278 81.6311 27.4476 82.2066 28.6428C82.2508 28.7314 82.3394 28.8642 82.4722 28.8642C82.605 28.8642 82.6935 28.7756 82.7378 28.6428C83.3133 27.4476 83.933 26.8278 84.6413 26.2081ZM82.5165 27.846C81.7196 26.1195 80.6572 25.7654 79.8604 24.703C79.639 24.4373 79.5505 24.1275 79.5505 23.7733C79.5505 22.8879 80.2588 22.1797 81.1441 22.1797C81.8967 22.1797 82.3837 22.7551 82.5607 23.1536C82.7378 22.7551 83.1805 22.1797 83.9773 22.1797C84.8627 22.1797 85.571 22.8879 85.571 23.7733C85.571 24.0832 85.4382 24.3931 85.2611 24.703C84.3757 25.8097 83.269 26.1638 82.5165 27.846Z" fill="#003300"/>
<path d="M27.8002 34.5293C27.0034 34.5293 26.6492 35.1048 26.6492 35.8131C26.6492 36.5214 27.0476 37.0969 27.8445 37.0969C28.6856 37.0969 29.0397 36.4771 29.0397 35.8131C28.9955 35.1491 28.7298 34.5293 27.8002 34.5293ZM27.8002 36.6984C27.3133 36.6984 27.0476 36.3 27.0476 35.8131C27.0476 35.1491 27.4018 34.8834 27.8002 34.8834C28.2872 34.8834 28.5528 35.1933 28.5528 35.8131C28.597 36.3443 28.2872 36.6984 27.8002 36.6984Z" fill="#003300"/>
<path d="M31.2975 34.5736C31.1204 34.5736 31.0761 34.6178 31.0761 34.7064C31.0761 34.8834 31.0761 34.7949 31.0761 35.8131C31.0761 36.4328 30.722 36.6984 30.3678 36.6984C30.058 36.6984 29.8809 36.5214 29.8809 36.0344C29.8809 35.8131 29.8809 34.7949 29.8809 34.7064C29.8809 34.5736 29.8809 34.5293 29.6595 34.5293C29.4825 34.5293 29.4382 34.5736 29.4382 34.6621C29.4382 35.5032 29.4382 35.3704 29.4382 36.123C29.4382 36.8755 29.8366 37.0526 30.2793 37.0526C30.8991 37.0526 30.9876 36.6542 31.0761 36.6542C31.1204 36.6542 31.1204 36.6542 31.1204 36.787C31.1647 36.9641 31.1647 36.9641 31.2975 36.9641C31.4303 36.9641 31.4745 36.9198 31.4745 36.787C31.4745 36.6099 31.4745 35.9016 31.4745 34.6621C31.5188 34.6178 31.5188 34.5736 31.2975 34.5736Z" fill="#003300"/>
<path d="M33.2011 34.5752C32.6698 34.5752 32.537 35.1064 32.4928 35.1064C32.4928 35.1064 32.4485 35.0621 32.4485 34.9736V34.6637C32.4485 34.5752 32.36 34.5752 32.2714 34.5752C32.1386 34.5752 32.0944 34.6195 32.0944 34.708C32.0944 35.0179 32.0944 36.6558 32.0944 36.7886C32.0944 36.9657 32.0944 36.9657 32.2714 36.9657C32.4042 36.9657 32.4928 36.9657 32.4928 36.8329V35.7262C32.4928 35.2835 32.8027 34.9736 33.2453 34.9736C33.3781 34.9736 33.4667 34.9293 33.4667 34.7965C33.4667 34.6637 33.3781 34.5752 33.2011 34.5752Z" fill="#003300"/>
<path d="M36.2111 34.5302C35.5028 34.5302 35.4585 34.8844 35.37 34.8844C35.3257 34.8844 35.3257 34.8844 35.3257 34.8401C35.3257 34.663 35.3257 33.999 35.3257 33.7777C35.3257 33.6449 35.2814 33.6006 35.1486 33.6006C34.9715 33.6006 34.9273 33.6891 34.9273 33.7777C34.9273 35.4156 34.9273 36.478 34.9273 36.8764C34.9273 37.0093 34.9715 37.0093 35.1044 37.0093C35.2372 37.0093 35.2372 36.965 35.2814 36.8322C35.3257 36.6108 35.3257 36.6108 35.37 36.6108C35.4585 36.6108 35.547 37.0535 36.2111 37.0535C36.8308 37.0535 37.2735 36.6108 37.2735 35.7255C37.2735 34.9286 36.7423 34.5302 36.2111 34.5302ZM36.0783 36.6994C35.5913 36.6994 35.3257 36.2567 35.3257 35.7697C35.3257 35.2385 35.5913 34.8401 36.0783 34.8401C36.5652 34.8401 36.8308 35.1943 36.8308 35.7255C36.8308 36.301 36.6537 36.6994 36.0783 36.6994Z" fill="#003300"/>
<path d="M39.5756 34.5736C39.3985 34.5736 39.3542 34.6178 39.3542 34.7064C39.3542 34.8834 39.3542 34.7949 39.3542 35.8131C39.3542 36.4328 39.0001 36.6984 38.6459 36.6984C38.336 36.6984 38.159 36.5214 38.159 36.0344C38.159 35.8131 38.159 34.7949 38.159 34.7064C38.159 34.5736 38.159 34.5293 37.9376 34.5293C37.7605 34.5293 37.7163 34.5736 37.7163 34.6621C37.7163 35.5032 37.7163 35.3704 37.7163 36.123C37.7163 36.8755 38.1147 37.0526 38.5574 37.0526C39.1771 37.0526 39.2657 36.6542 39.3542 36.6542C39.3985 36.6542 39.3985 36.6542 39.3985 36.787C39.4427 36.9641 39.4427 36.9641 39.5756 36.9641C39.7084 36.9641 39.7526 36.9198 39.7526 36.787C39.7526 36.6099 39.7526 35.9016 39.7526 34.6621C39.7526 34.6178 39.7526 34.5736 39.5756 34.5736Z" fill="#003300"/>
<path d="M41.3479 35.6803C40.8167 35.5917 40.7282 35.4589 40.7282 35.2376C40.7282 35.0162 40.9052 34.8834 41.2594 34.8834C41.5693 34.8834 41.7906 34.972 41.8791 35.1491C41.9234 35.2376 42.012 35.3261 42.1005 35.3261C42.189 35.3261 42.2776 35.2819 42.2776 35.1491C42.2776 34.8834 42.012 34.5293 41.3037 34.5293C40.6396 34.5293 40.2855 34.8392 40.2855 35.2819C40.2855 35.5917 40.5068 35.9016 41.1266 35.9902C41.7906 36.0787 41.8791 36.2115 41.8791 36.3886C41.8791 36.5656 41.7021 36.6984 41.3037 36.6984C40.5511 36.6984 40.6396 36.1672 40.3298 36.1672C40.2412 36.1672 40.1527 36.2558 40.1527 36.3C40.1527 36.6099 40.5511 37.0083 41.2594 37.0083C41.9677 37.0083 42.2776 36.6542 42.2776 36.3C42.3218 35.9902 42.0562 35.8131 41.3479 35.6803Z" fill="#003300"/>
<path d="M42.9838 34.5752C42.8068 34.5752 42.8068 34.6195 42.8068 34.708C42.8068 34.9736 42.8068 36.7443 42.8068 36.8772C42.8068 36.9657 42.851 37.01 43.0281 37.01C43.2052 37.01 43.2494 36.9657 43.2494 36.8772V34.708C43.2052 34.6195 43.1609 34.5752 42.9838 34.5752Z" fill="#003300"/>
<path d="M43.0287 33.5566C42.8074 33.5566 42.7189 33.6894 42.7189 33.8665C42.7189 34.0436 42.8074 34.1764 43.0287 34.1764C43.2058 34.1764 43.3386 34.0436 43.3386 33.8665C43.2944 33.6894 43.2058 33.5566 43.0287 33.5566Z" fill="#003300"/>
<path d="M45.0656 34.5293C44.4901 34.5293 44.3573 34.972 44.313 34.972C44.2687 34.972 44.2687 34.9277 44.2687 34.7506C44.2687 34.6178 44.2245 34.6178 44.0917 34.6178C43.9589 34.6178 43.9146 34.6621 43.9146 34.7949C43.9146 34.972 43.9146 35.7245 43.9146 36.9641C43.9146 37.0526 43.9589 37.0969 44.0917 37.0969C44.313 37.0969 44.313 37.0526 44.313 36.9641V35.7688C44.313 35.1933 44.6671 34.972 45.0656 34.972C45.3754 34.972 45.5525 35.1491 45.5525 35.5475C45.5525 35.8131 45.5525 36.8313 45.5525 36.9198C45.5525 37.0526 45.5525 37.0526 45.7296 37.0526C45.9067 37.0526 45.9509 37.0083 45.9509 36.9641C45.9509 36.123 45.9509 36.2558 45.9509 35.5032C45.9067 34.7064 45.464 34.5293 45.0656 34.5293Z" fill="#003300"/>
<path d="M47.5442 34.5293C46.8802 34.5293 46.4818 34.9277 46.3932 35.4589C46.3932 35.5917 46.349 35.6803 46.349 35.7688C46.349 36.5214 46.7031 37.0526 47.4999 37.0526C48.2082 37.0526 48.4739 36.6099 48.4739 36.4328C48.4739 36.3 48.4296 36.2558 48.2968 36.2558C48.0754 36.2558 48.0754 36.6984 47.4999 36.6984C47.0573 36.6984 46.7474 36.3443 46.7474 35.9016C46.7474 35.8131 46.7474 35.7688 46.8359 35.7688C46.9245 35.7688 48.164 35.7688 48.2968 35.7688C48.4739 35.7688 48.5624 35.6803 48.5624 35.4589C48.6067 35.0162 48.2525 34.5293 47.5442 34.5293ZM48.0754 35.5475H46.9687C46.8802 35.5475 46.8359 35.5475 46.8359 35.4147C46.8359 35.1933 47.0573 34.8392 47.5442 34.8392C48.0312 34.8392 48.2082 35.1491 48.2082 35.3704C48.2082 35.5032 48.164 35.5475 48.0754 35.5475Z" fill="#003300"/>
<path d="M50.0675 35.6803C49.5363 35.5917 49.4477 35.4589 49.4477 35.2376C49.4477 35.0162 49.6248 34.8834 49.9789 34.8834C50.2888 34.8834 50.5102 34.972 50.5987 35.1491C50.643 35.2376 50.7315 35.3261 50.82 35.3261C50.9086 35.3261 50.9971 35.2819 50.9971 35.1491C50.9971 34.8834 50.7315 34.5293 50.0232 34.5293C49.3592 34.5293 49.005 34.8392 49.005 35.2819C49.005 35.5917 49.2264 35.9016 49.8461 35.9902C50.5102 36.0787 50.5987 36.2115 50.5987 36.3886C50.5987 36.5656 50.4216 36.6984 50.0232 36.6984C49.2706 36.6984 49.3592 36.1672 49.0493 36.1672C48.9608 36.1672 48.8722 36.2558 48.8722 36.3C48.8722 36.6099 49.2706 37.0083 49.9789 37.0083C50.6872 37.0083 50.9971 36.6542 50.9971 36.3C50.9971 35.9902 50.7758 35.8131 50.0675 35.6803Z" fill="#003300"/>
<path d="M52.4579 35.6803C51.9267 35.5917 51.8381 35.4589 51.8381 35.2376C51.8381 35.0162 52.0152 34.8834 52.3693 34.8834C52.6792 34.8834 52.9006 34.972 52.9891 35.1491C53.0334 35.2376 53.1219 35.3261 53.2104 35.3261C53.299 35.3261 53.3875 35.2819 53.3875 35.1491C53.3875 34.8834 53.1219 34.5293 52.4136 34.5293C51.7496 34.5293 51.3954 34.8392 51.3954 35.2819C51.3954 35.5917 51.6168 35.9016 52.2365 35.9902C52.9006 36.0787 52.9891 36.2115 52.9891 36.3886C52.9891 36.5656 52.812 36.6984 52.4136 36.6984C51.661 36.6984 51.7496 36.1672 51.4397 36.1672C51.3512 36.1672 51.2626 36.2558 51.2626 36.3C51.2626 36.6099 51.6611 37.0083 52.3693 37.0083C53.0776 37.0083 53.3875 36.6542 53.3875 36.3C53.3875 35.9902 53.1662 35.8131 52.4579 35.6803Z" fill="#003300"/>
<path d="M55.2026 33.5566C54.9813 33.5566 54.8927 33.6894 54.8927 33.8665C54.8927 34.0436 54.9813 34.1764 55.2026 34.1764C55.3797 34.1764 55.5125 34.0436 55.5125 33.8665C55.5125 33.6894 55.424 33.5566 55.2026 33.5566Z" fill="#003300"/>
<path d="M55.2026 34.5752C55.0256 34.5752 55.0256 34.6195 55.0256 34.708C55.0256 34.9736 55.0256 36.7443 55.0256 36.8772C55.0256 36.9657 55.0698 37.01 55.2469 37.01C55.424 37.01 55.4683 36.9657 55.4683 36.8772V34.708C55.424 34.6195 55.3355 34.5752 55.2026 34.5752Z" fill="#003300"/>
<path d="M57.063 35.6803C56.5317 35.5917 56.4432 35.4589 56.4432 35.2376C56.4432 35.0162 56.6203 34.8834 56.9744 34.8834C57.2843 34.8834 57.5056 34.972 57.5942 35.1491C57.6384 35.2376 57.727 35.3261 57.8155 35.3261C57.9041 35.3261 57.9926 35.2819 57.9926 35.1491C57.9926 34.8834 57.727 34.5293 57.0187 34.5293C56.3547 34.5293 56.0005 34.8392 56.0005 35.2819C56.0005 35.5917 56.2219 35.9016 56.8416 35.9902C57.5056 36.0787 57.5942 36.2115 57.5942 36.3886C57.5942 36.5656 57.4171 36.6984 57.0187 36.6984C56.2661 36.6984 56.3547 36.1672 56.0448 36.1672C55.9562 36.1672 55.8677 36.2558 55.8677 36.3C55.8677 36.6099 56.2661 37.0083 56.9744 37.0083C57.6827 37.0083 57.9926 36.6542 57.9926 36.3C57.9926 35.9902 57.7712 35.8131 57.063 35.6803Z" fill="#003300"/>
<path d="M60.2932 34.9283H60.8244C60.913 34.9283 60.9572 34.8841 60.9572 34.7513C60.9572 34.6184 60.8687 34.5742 60.8244 34.5742C60.6916 34.5742 60.3375 34.5742 60.2932 34.5742C60.2489 34.5742 60.2047 34.5742 60.2047 34.4856V33.9544C60.2047 33.8659 60.1604 33.7773 60.0276 33.7773C59.8505 33.7773 59.8505 33.8659 59.8505 33.9544V34.5299C59.8505 34.6184 59.8063 34.6184 59.5406 34.6627C59.4078 34.707 59.4078 34.707 59.4078 34.7955C59.4078 34.8841 59.4521 34.9283 59.5406 34.9283H59.762C59.8063 34.9283 59.8505 34.9726 59.8505 35.0169C59.8505 35.4153 59.8505 36.035 59.8505 36.3006C59.8505 36.7433 60.0276 37.0089 60.5145 37.0089C60.8244 37.0089 60.9572 36.8761 60.9572 36.7433C60.9572 36.6548 60.913 36.5663 60.8244 36.5663C60.7359 36.5663 60.6474 36.6105 60.5588 36.6105C60.3817 36.6105 60.2932 36.522 60.2932 36.3449V34.9726C60.2047 34.9283 60.2047 34.9283 60.2932 34.9283Z" fill="#003300"/>
<path d="M62.4188 34.5293C61.622 34.5293 61.2679 35.1048 61.2679 35.8131C61.2679 36.5214 61.6663 37.0969 62.4631 37.0969C63.3042 37.0969 63.6584 36.4771 63.6584 35.8131C63.6141 35.1491 63.3042 34.5293 62.4188 34.5293ZM62.4188 36.6984C61.9319 36.6984 61.6663 36.3 61.6663 35.8131C61.6663 35.1491 62.0204 34.8834 62.4188 34.8834C62.9058 34.8834 63.1714 35.1933 63.1714 35.8131C63.1714 36.3443 62.9058 36.6984 62.4188 36.6984Z" fill="#003300"/>
<path d="M66.3586 34.5305C65.7831 34.5305 65.6946 34.8847 65.6503 34.8847C65.6503 34.8847 65.606 34.8847 65.606 34.7962C65.606 34.2649 65.606 34.0879 65.606 33.7337C65.606 33.6009 65.5618 33.5566 65.429 33.5566C65.2519 33.5566 65.2076 33.6452 65.2076 33.7337V36.7882C65.2076 36.921 65.2519 37.0096 65.3847 37.0096C65.4732 37.0096 65.429 37.0096 65.5175 37.0096C65.606 37.0096 65.6503 36.9653 65.6503 36.921C65.6503 36.744 65.6503 36.1242 65.6503 35.5487C65.6503 35.0618 66.0044 34.8847 66.3586 34.8847C66.6685 34.8847 66.8898 35.106 66.8898 35.5045C66.8898 35.7258 66.8898 36.744 66.8898 36.8768C66.8898 37.0096 66.8898 37.0538 67.1111 37.0538C67.244 37.0538 67.2882 37.0096 67.2882 36.8768C67.2882 36.0357 67.2882 35.7701 67.2882 35.5045C67.1997 34.7076 66.8013 34.5305 66.3586 34.5305Z" fill="#003300"/>
<path d="M68.8372 34.5293C68.1732 34.5293 67.7748 34.9277 67.6862 35.4589C67.6862 35.5917 67.642 35.6803 67.642 35.7688C67.642 36.5214 67.9961 37.0526 68.7929 37.0526C69.5012 37.0526 69.7668 36.6099 69.7668 36.4328C69.7668 36.3 69.7226 36.2558 69.5898 36.2558C69.3684 36.2558 69.3684 36.6984 68.7929 36.6984C68.3503 36.6984 68.0404 36.3443 68.0404 35.9016C68.0404 35.8131 68.0404 35.7688 68.1289 35.7688C68.2175 35.7688 69.457 35.7688 69.5898 35.7688C69.7668 35.7688 69.8554 35.6803 69.8554 35.4589C69.8997 35.0162 69.5455 34.5293 68.8372 34.5293ZM69.4127 35.5475H68.306C68.2175 35.5475 68.1732 35.5475 68.1732 35.4147C68.1732 35.1933 68.3945 34.8392 68.8815 34.8392C69.3684 34.8392 69.5455 35.1491 69.5455 35.3704C69.5012 35.5032 69.5012 35.5475 69.4127 35.5475Z" fill="#003300"/>
<path d="M71.1385 36.6551C71.05 36.6551 71.05 36.6994 70.9615 36.6994C70.8287 36.6994 70.8287 36.6108 70.8287 36.4338V33.7777C70.8287 33.6449 70.7844 33.6006 70.6073 33.6006C70.4303 33.6006 70.386 33.6891 70.386 33.7777C70.386 33.9547 70.386 36.3895 70.386 36.478C70.386 36.8322 70.4745 37.0093 70.8729 37.0093C71.0943 37.0093 71.2271 36.9207 71.2271 36.8322C71.2714 36.7436 71.2271 36.6551 71.1385 36.6551Z" fill="#003300"/>
<path d="M72.8223 34.5293C72.114 34.5293 72.0697 34.9277 71.9811 34.9277C71.9369 34.9277 71.9369 34.8834 71.9369 34.7064C71.9369 34.6178 71.8926 34.5736 71.7598 34.5736C71.627 34.5736 71.5827 34.6178 71.5827 34.7064V35.5917C71.5827 36.4328 71.5827 37.4953 71.5827 37.5838C71.5827 37.7609 71.627 37.7609 71.7598 37.7609C71.8926 37.7609 71.9811 37.7609 71.9811 37.6281C71.9811 36.9198 71.9811 36.8313 71.9811 36.7427C71.9811 36.6984 71.9811 36.6984 72.0254 36.6984C72.114 36.6984 72.1582 37.0083 72.8223 37.0083C73.3977 37.0083 73.8847 36.5214 73.8847 35.7688C73.8847 35.0162 73.4863 34.5293 72.8223 34.5293ZM72.6894 36.6984C72.2468 36.6984 71.9369 36.3886 71.9369 35.8131C71.9369 35.1933 72.2468 34.8834 72.6894 34.8834C73.1764 34.8834 73.3977 35.2376 73.3977 35.7688C73.442 36.2558 73.2207 36.6984 72.6894 36.6984Z" fill="#003300"/>
<path d="M77.2931 34.5752H77.116C77.0275 34.5752 76.9832 34.6195 76.939 34.708L76.452 36.4787C76.452 36.523 76.4078 36.5673 76.3635 36.5673C76.3192 36.5673 76.2749 36.523 76.2749 36.4787L75.6995 34.6637C75.6552 34.5752 75.6552 34.5752 75.5224 34.5752H75.3896C75.301 34.5752 75.2568 34.6195 75.2568 34.6637C75.2568 34.708 75.2568 34.7523 75.301 34.8408C75.3896 35.0621 75.4338 35.2835 75.6995 35.9475C75.8323 36.2574 75.9651 36.6115 76.0093 36.7886C76.0979 37.0542 76.2749 37.01 76.2749 37.0542C76.2749 37.187 76.1421 37.4084 75.8765 37.4084C75.7437 37.4084 75.6552 37.4969 75.6552 37.5854C75.6552 37.7183 75.6995 37.8068 75.9208 37.8068C76.3192 37.8068 76.5406 37.5412 76.6734 37.1428L77.4259 34.8851C77.4259 34.8408 77.4702 34.7523 77.4702 34.6637C77.4259 34.6195 77.3817 34.5752 77.2931 34.5752Z" fill="#003300"/>
<path d="M78.8421 34.5293C78.0453 34.5293 77.6911 35.1048 77.6911 35.8131C77.6911 36.5214 78.0895 37.0969 78.8864 37.0969C79.7275 37.0969 80.0816 36.4771 80.0816 35.8131C80.0374 35.1491 79.7717 34.5293 78.8421 34.5293ZM78.8421 36.6984C78.3552 36.6984 78.0895 36.3 78.0895 35.8131C78.0895 35.1491 78.4437 34.8834 78.8421 34.8834C79.3291 34.8834 79.5947 35.1933 79.5947 35.8131C79.5947 36.3443 79.3291 36.6984 78.8421 36.6984Z" fill="#003300"/>
<path d="M82.3394 34.5736C82.1623 34.5736 82.118 34.6178 82.118 34.7064C82.118 34.8834 82.118 34.7949 82.118 35.8131C82.118 36.4328 81.7639 36.6984 81.4097 36.6984C81.0999 36.6984 80.9228 36.5214 80.9228 36.0344C80.9228 35.8131 80.9228 34.7949 80.9228 34.7064C80.9228 34.5736 80.9228 34.5293 80.7014 34.5293C80.5244 34.5293 80.4801 34.5736 80.4801 34.6621C80.4801 35.5032 80.4801 35.3704 80.4801 36.123C80.4801 36.8755 80.8785 37.0526 81.3212 37.0526C81.941 37.0526 82.0295 36.6542 82.118 36.6542C82.1623 36.6542 82.1623 36.6542 82.1623 36.787C82.2066 36.9641 82.2066 36.9641 82.3394 36.9641C82.4722 36.9641 82.5164 36.9198 82.5164 36.787C82.5164 36.6099 82.5164 35.9016 82.5164 34.6621C82.5607 34.6178 82.5607 34.5736 82.3394 34.5736Z" fill="#003300"/>
<path d="M84.2429 34.5752C83.7117 34.5752 83.5789 35.1064 83.5346 35.1064C83.5346 35.1064 83.4904 35.0621 83.4904 34.9736V34.6637C83.4904 34.5752 83.4018 34.5752 83.3133 34.5752C83.1805 34.5752 83.1362 34.6195 83.1362 34.708C83.1362 35.0179 83.1362 36.6558 83.1362 36.7886C83.1362 36.9657 83.1362 36.9657 83.3133 36.9657C83.4461 36.9657 83.5346 36.9657 83.5346 36.8329V35.7262C83.5346 35.2835 83.8445 34.9736 84.2872 34.9736C84.42 34.9736 84.5085 34.9293 84.5085 34.7965C84.5085 34.6637 84.42 34.5752 84.2429 34.5752Z" fill="#003300"/>
<path d="M85.8358 35.6803C85.3046 35.5917 85.2161 35.4589 85.2161 35.2376C85.2161 35.0162 85.3932 34.8834 85.7473 34.8834C86.0572 34.8834 86.2785 34.972 86.3671 35.1491C86.4113 35.2376 86.4999 35.3261 86.5884 35.3261C86.6769 35.3261 86.7655 35.2819 86.7655 35.1491C86.7655 34.8834 86.4999 34.5293 85.7916 34.5293C85.1275 34.5293 84.7734 34.8392 84.7734 35.2819C84.7734 35.5917 84.9947 35.9016 85.6145 35.9902C86.2785 36.0787 86.3671 36.2115 86.3671 36.3886C86.3671 36.5656 86.19 36.6984 85.7916 36.6984C85.039 36.6984 85.1275 36.1672 84.8177 36.1672C84.7291 36.1672 84.6406 36.2558 84.6406 36.3C84.6406 36.6099 85.039 37.0083 85.7473 37.0083C86.4556 37.0083 86.7655 36.6542 86.7655 36.3C86.8097 35.9902 86.5441 35.8131 85.8358 35.6803Z" fill="#003300"/>
<path d="M30.2792 13.2368C28.7741 13.2368 28.597 14.1222 28.42 14.1222C28.3314 14.1222 28.2872 14.0779 28.2872 13.7681V11.289C28.2872 10.8906 28.0658 10.7578 27.4461 10.7578C26.8263 10.7578 26.6492 10.9349 26.6492 11.3333C26.6492 11.7317 26.6492 15.9372 26.6492 19.1688C26.6492 19.6558 27.0919 19.7 27.5789 19.7C28.1986 19.7 28.3757 19.523 28.3757 19.1688V16.4684C28.3757 15.3617 28.9069 14.742 29.6152 14.742C30.4563 14.742 30.7662 15.2732 30.7662 16.3799C30.7662 16.9997 30.7219 18.8589 30.7219 19.1245C30.7219 19.6115 30.9875 19.7443 31.6516 19.7443C32.3156 19.7443 32.4927 19.523 32.4927 19.1245V15.8929C32.4927 13.8123 31.386 13.2368 30.2792 13.2368Z" fill="#003300"/>
<path d="M38.5128 13.3695C37.8488 13.3695 37.6274 13.5465 37.6274 13.9007C37.6274 14.2991 37.6717 14.8303 37.6717 16.3354C37.6717 17.7078 37.229 18.3718 36.3879 18.3718C35.6796 18.3718 35.2812 17.8406 35.2812 16.7339C35.2812 16.1141 35.3255 14.122 35.3255 13.9007C35.3255 13.4137 35.0599 13.3252 34.4401 13.3252C33.7318 13.3252 33.5547 13.5465 33.5547 13.945C33.5547 16.1141 33.5547 15.2287 33.5547 17.1765C33.5547 18.9916 34.263 19.8769 35.6796 19.8769C37.4504 19.8769 37.4946 18.5931 37.716 18.5931C37.8045 18.5931 37.8045 18.8145 37.8931 19.0801C37.9816 19.4785 38.1587 19.6998 38.6899 19.6998C39.2211 19.6998 39.4424 19.4342 39.4424 19.0358C39.4424 18.6374 39.4867 14.6532 39.4867 13.9007C39.3982 13.458 39.1326 13.3695 38.5128 13.3695Z" fill="#003300"/>
<path d="M44.4009 13.1483C42.8515 13.1483 42.5859 14.0337 42.4088 14.0337C42.3203 14.0337 42.276 13.9894 42.276 13.7681C42.276 13.5467 42.3203 13.3696 42.3203 12.7499V11.4661C42.3203 11.0234 42.2317 10.7578 41.4349 10.7578C40.7266 10.7578 40.5052 10.9792 40.5052 11.4661C40.5052 15.6716 40.5052 18.1064 40.5052 19.0803C40.5052 19.4787 40.6823 19.7 41.2135 19.7C41.612 19.7 41.8776 19.6115 41.9661 19.2131C42.0546 18.7261 42.0546 18.6376 42.1432 18.6376C42.3645 18.6376 42.3645 19.7886 44.3123 19.7886C45.9503 19.7886 46.9684 18.4163 46.9684 16.4242C46.9242 14.2993 45.9503 13.1483 44.4009 13.1483ZM43.6483 18.5048C42.8072 18.5048 42.1874 17.7965 42.1874 16.557C42.1874 15.1404 42.8515 14.6977 43.6926 14.6977C44.5779 14.6977 45.1092 15.1404 45.1092 16.4684C45.1534 17.7965 44.5779 18.5048 43.6483 18.5048Z" fill="#003300"/>
<path d="M14.6528 15.981C14.033 15.3613 13.3247 14.8743 12.5279 14.5644C11.6868 14.2103 10.8457 14.0332 9.91604 14.0332C9.03067 14.0332 8.1453 14.2103 7.3042 14.5644C6.50737 14.8743 5.79907 15.3613 5.17932 15.981C4.55956 16.6008 4.07261 17.3091 3.76273 18.1059C3.40858 18.9027 3.23151 19.7881 3.23151 20.6735V27.0924C3.23151 27.2252 3.32004 27.3137 3.45285 27.3137C3.58565 27.3137 3.67419 27.2252 3.67419 27.0924V20.6735C3.67419 19.8324 3.85126 19.0355 4.16114 18.283C4.47102 17.5304 4.91371 16.8664 5.4892 16.3352C6.06469 15.7597 6.72871 15.317 7.43701 15.0071C8.18957 14.6972 9.03067 14.5202 9.87177 14.5202C10.7129 14.5202 11.5097 14.6972 12.2623 15.0071C13.0148 15.317 13.6789 15.7597 14.2101 16.3352C14.7856 16.9107 15.2282 17.5747 15.5381 18.283C15.848 19.0355 16.0251 19.8766 16.0251 20.6735V27.0924C16.0251 27.2252 16.1136 27.3137 16.2464 27.3137C16.3792 27.3137 16.4678 27.2252 16.4678 27.0924V20.6735C16.4678 19.7881 16.2907 18.9027 15.9365 18.0616C15.7152 17.3091 15.2725 16.6008 14.6528 15.981Z" fill="#003300"/>
<path d="M15.7599 14.8312C15.0073 14.0787 14.1219 13.4589 13.1038 13.0605C12.0856 12.6178 10.9789 12.3965 9.87217 12.3965C8.76546 12.3965 7.65875 12.6178 6.64058 13.0605C5.66667 13.4589 4.7813 14.0787 4.02874 14.8312C3.27618 15.5838 2.65642 16.4692 2.258 17.4431C1.85959 18.5055 1.63824 19.568 1.63824 20.6747V27.0936C1.63824 28.1118 2.47934 28.9529 3.49752 28.9529C4.51569 28.9529 5.35679 28.1118 5.35679 27.0936V20.6747C5.35679 19.4352 5.84374 18.2842 6.68484 17.4431C7.57021 16.5577 8.72119 16.115 9.91644 16.115C11.1117 16.115 12.3069 16.602 13.148 17.4431C13.9891 18.2842 14.4761 19.4794 14.4761 20.6747V27.0936C14.4761 28.1118 15.3172 28.9529 16.3354 28.9529C17.3535 28.9529 18.1946 28.1118 18.1946 27.0936V20.6747C18.1946 19.568 17.9733 18.4613 17.5306 17.4431C17.1322 16.4692 16.5567 15.5838 15.7599 14.8312ZM17.7077 27.1379C17.7077 27.8904 17.0879 28.5102 16.3354 28.5102C15.5828 28.5102 14.963 27.8904 14.963 27.1379V20.6747C14.963 19.3024 14.4318 18.0628 13.4579 17.0889C12.484 16.115 11.2445 15.5838 9.87217 15.5838C8.49985 15.5838 7.26033 16.115 6.28643 17.0889C5.31252 18.0628 4.7813 19.3024 4.7813 20.6747V27.0936C4.7813 27.8462 4.16154 28.4659 3.40898 28.4659C2.65642 28.4659 2.03666 27.8462 2.03666 27.0936V20.6747C2.03666 19.6122 2.258 18.5941 2.65642 17.6202C3.05483 16.6905 3.63032 15.8494 4.33862 15.1411C5.04691 14.4328 5.88801 13.8573 6.81765 13.4589C7.79155 13.0605 8.80973 12.8392 9.87217 12.8392C10.9346 12.8392 11.9528 13.0605 12.9267 13.4589C13.8563 13.8573 14.6974 14.4328 15.4057 15.1411C16.114 15.8494 16.6895 16.6905 17.0879 17.6202C17.4863 18.5941 17.7077 19.6122 17.7077 20.6747V27.1379Z" fill="#003300"/>
<path d="M19.8323 20.6734C19.8323 19.3453 19.5666 18.0615 19.0354 16.822C18.5485 15.6268 17.8402 14.5643 16.9105 13.6789C15.9809 12.7493 14.9627 12.041 13.7675 11.5541C12.528 11.0228 11.2442 10.7572 9.91613 10.7572C8.89795 10.7572 7.87978 10.89 6.95014 11.1999V3.45294C6.95014 2.5233 6.59599 1.6822 5.93197 1.01817C5.26794 0.354147 4.42684 0 3.49721 0C2.56757 0 1.6822 0.354147 1.06244 1.01817C0.398416 1.6822 0 2.5233 0 3.45294V20.6734V27.0923C0 28.0219 0.354147 28.9073 1.01817 29.527C1.6822 30.1911 2.5233 30.5452 3.45294 30.5452C4.38257 30.5452 5.22367 30.1911 5.8877 29.527C6.55173 28.863 6.90587 28.0219 6.90587 27.0923V20.6734C6.90587 19.0354 8.23393 17.7074 9.87186 17.7074C11.5098 17.7074 12.8378 19.0354 12.8378 20.6734V27.0923C12.8378 28.0219 13.192 28.863 13.856 29.527C14.52 30.1911 15.3611 30.5452 16.2908 30.5452C17.2204 30.5452 18.0615 30.1911 18.7255 29.527C19.3896 28.863 19.7437 28.0219 19.7437 27.0923V20.6734H19.8323ZM0.486953 3.45294C0.486953 1.81501 1.81501 0.486953 3.45294 0.486953C5.09087 0.486953 6.41892 1.81501 6.41892 3.45294V11.4213C6.28612 11.4655 6.15331 11.5098 6.0205 11.5541C5.75489 11.6426 5.53355 11.7754 5.26794 11.9082V3.45294C5.26794 2.43476 4.42684 1.59366 3.40867 1.59366C2.47903 1.59366 1.63793 2.43476 1.63793 3.45294V15.2283C1.63793 15.2283 1.63793 15.2283 1.63793 15.2726C1.32805 15.7596 1.01817 16.2908 0.796832 16.822C0.664026 17.0876 0.57549 17.3532 0.486953 17.6188V3.45294ZM3.49721 3.23159C3.3644 3.23159 3.27586 3.32013 3.27586 3.45294V13.3691C3.18733 13.4576 3.05452 13.5904 2.96598 13.6789C2.65611 13.9888 2.39049 14.2544 2.16915 14.6086V3.45294C2.12488 2.70037 2.74464 2.08062 3.49721 2.08062C4.24977 2.08062 4.86953 2.70037 4.86953 3.45294V12.1738C4.47111 12.3952 4.11696 12.6608 3.76282 12.9706V3.45294C3.71855 3.32013 3.63001 3.23159 3.49721 3.23159ZM16.335 30.1025C14.6971 30.1025 13.3691 28.7745 13.3691 27.1365V20.6734C13.3691 19.7437 13.0149 18.8583 12.3509 18.2386C11.6869 17.5746 10.8458 17.2204 9.91613 17.2204C8.98649 17.2204 8.10112 17.5746 7.48136 18.2386C6.81734 18.9026 6.46319 19.7437 6.46319 20.6734V27.0923C6.46319 28.7302 5.13514 30.0583 3.49721 30.0583C1.85927 30.0583 0.531221 28.7302 0.531221 27.0923V21.4702V20.6734C0.531221 19.3896 0.796831 18.1501 1.28378 16.9991C1.72647 15.8924 2.39049 14.9185 3.27586 14.0331C4.16123 13.1477 5.13514 12.4837 6.28612 11.9967C7.43709 11.5098 8.67661 11.2442 9.96039 11.2442C11.2442 11.2442 12.4837 11.5098 13.6347 11.9967C14.7414 12.4837 15.7596 13.1477 16.6449 14.0331C17.5303 14.9185 18.1943 15.8924 18.6813 17.0433C19.1682 18.1943 19.4338 19.4338 19.4338 20.7176V27.1365C19.3453 28.7745 17.973 30.1025 16.335 30.1025Z" fill="#003300"/>
</svg>
