<svg width="3" height="5" viewBox="0 0 3 5" fill="none" xmlns="http://www.w3.org/2000/svg">
<path d="M0.449466 0.0751953L0.524363 0.225012L0.749099 0.524668L1.34846 1.04908L1.72303 1.124L1.79793 1.19892L1.94777 1.49858L2.1725 1.79823L2.54708 2.09789V2.24773L2.39724 2.84704L2.32234 2.99688V3.22162L2.2474 3.59619L2.09761 3.82095L2.02267 4.34534L1.94777 4.42026L1.79793 3.97077L1.49825 3.74603L1.57319 3.59619L1.94777 3.67111L2.09761 3.52127L2.02267 3.37146L2.09761 3.0718L2.32234 2.77212L2.39724 2.39755V2.17281L2.02267 1.87315L1.72303 1.34874L1.49825 1.19892L1.04878 0.974163L0.824041 0.749427L0.374523 0.599588L0.0748901 0.749427L0.374523 0.0751953H0.449466Z" fill="#F7FCFF" stroke="black" stroke-width="0.14983" stroke-linecap="round" stroke-linejoin="round"/>
</svg>
