<?xml version="1.0" encoding="UTF-8"?>
<svg id="Layer_2" data-name="Layer 2" xmlns="http://www.w3.org/2000/svg" viewBox="0 0 625.69 205.8">
  <defs>
    <style>
      .cls-1 {
        fill: #3e942c;
      }

      .cls-2 {
        fill: #fff;
      }

      .cls-3 {
        fill: #f2c113;
      }
    </style>
  </defs>
  <g id="Layer_1-2" data-name="Layer 1">
    <g>
      <path class="cls-3" d="M625.69,163.64v22.06c-91.5,11.8-195.92,20.01-311.02,20.1C198.1,205.89,92.43,197.63,0,185.7v-22.06c95.04,10.12,200.89,16.72,315.88,16.59,112.62-.11,216.41-6.65,309.8-16.59Z"/>
      
      <g>
        <path class="cls-2" d="M121.68,147.72h-37.21v-3.75c1.73-.13,3.76-.44,6.1-.94,2.34-.5,3.51-1.11,3.51-1.85,0-.26-.02-.54-.07-.87-.05-.32-.19-.75-.41-1.3l-5.83-14.15h-23.58c-.54,1.32-1.14,2.86-1.8,4.62s-1.22,3.34-1.7,4.72c-.61,1.8-.97,3.1-1.08,3.9-.11.8-.17,1.36-.17,1.68,0,1.03.78,1.9,2.33,2.62,1.56.72,4.14,1.24,7.77,1.56v3.75h-28.02v-3.75c1.06-.07,2.25-.23,3.59-.51,1.33-.27,2.38-.65,3.15-1.13,1.32-.77,2.43-1.72,3.35-2.84.91-1.12,1.68-2.46,2.29-4,3.72-9.02,7.45-18.05,11.19-27.1,3.74-9.05,7.87-19.03,12.4-29.94h9.63c6.29,15.47,11.22,27.7,14.78,36.68,3.56,8.99,6.6,16.43,9.1,22.34.42.96.95,1.84,1.59,2.62.64.79,1.56,1.53,2.74,2.24.9.51,1.94.9,3.13,1.16,1.19.26,2.26.42,3.23.48v3.75ZM85.78,120.09l-9.89-24.69-9.74,24.69h19.63Z"/>
        <path class="cls-2" d="M200.83,119.94c-1,.1-1.88.21-2.65.34s-1.73.38-2.89.77c-1.32.42-2.18,1.11-2.6,2.07-.42.96-.63,1.97-.63,3.03v7.94c0,1.61.02,2.9.05,3.88s.08,2.19.14,3.63c-3.21,1.93-7.95,3.74-14.23,5.44-6.27,1.7-12.04,2.55-17.31,2.55-4.94,0-9.58-.76-13.91-2.26-4.33-1.51-8.14-3.77-11.41-6.79-3.27-2.99-5.85-6.7-7.73-11.13-1.88-4.43-2.82-9.51-2.82-15.22,0-5.33.88-10.26,2.65-14.79,1.76-4.53,4.32-8.43,7.65-11.71,3.27-3.24,7.26-5.75,11.96-7.52,4.7-1.77,9.91-2.65,15.62-2.65,3.88,0,7.48.48,10.78,1.44,3.31.96,6.03,1.99,8.18,3.08l2.98-2.65h4.19l.43,24.94h-4.24c-2.44-7.49-5.36-13.06-8.76-16.69-3.4-3.63-7.7-5.45-12.9-5.45-6.16,0-10.92,2.7-14.27,8.1-3.35,5.4-5.03,12.83-5.03,22.3,0,10.05,1.64,17.92,4.93,23.61,3.29,5.68,7.95,8.53,13.99,8.53,2.82,0,5.33-.42,7.53-1.28,2.2-.85,3.91-1.84,5.13-2.96v-13.86c0-1.16-.21-2.13-.63-2.91-.42-.79-1.25-1.47-2.5-2.05-.96-.45-2.17-.82-3.61-1.11-1.44-.29-2.65-.5-3.61-.63v-3.75h35.48v3.75Z"/>
        <path class="cls-2" d="M287.01,146.81h-26.21c-4.52-6.93-8.28-12.45-11.28-16.56s-6.73-8.86-11.18-14.25h-2.64v20.75c0,1.16.22,2.13.65,2.94.43.8,1.26,1.48,2.48,2.02.61.26,1.56.52,2.86.79,1.3.27,2.41.46,3.35.55v3.75h-36.44v-3.75c.93-.1,2.16-.23,3.68-.41,1.52-.18,2.61-.39,3.25-.65,1.22-.51,2.04-1.16,2.46-1.95.42-.79.63-1.79.63-3.01v-48.19c0-1.16-.18-2.12-.53-2.89-.35-.77-1.2-1.44-2.55-2.02-1.03-.42-2.24-.77-3.63-1.06-1.4-.29-2.5-.5-3.3-.63v-3.76h38.32c8.57,0,15.08,1.34,19.52,4.02,4.44,2.68,6.67,6.73,6.67,12.16,0,4.78-1.37,8.63-4.12,11.53-2.74,2.9-6.93,5.17-12.54,6.81,2.18,2.82,4.73,6.1,7.63,9.82,2.9,3.72,5.93,7.53,9.07,11.41.99,1.25,2.35,2.78,4.07,4.6,1.72,1.81,3.23,2.93,4.55,3.35.74.22,1.68.42,2.82.58,1.14.16,1.95.26,2.43.29v3.75ZM254.22,96.02c0-4.56-1.28-7.89-3.83-9.99-2.55-2.1-6.19-3.15-10.9-3.15h-3.8v28.6h3.66c4.72,0,8.38-1.23,10.98-3.71s3.9-6.39,3.9-11.75Z"/>
        <path class="cls-2" d="M327.26,147.72h-37.89v-3.75c.87-.07,2.14-.16,3.83-.29s2.85-.32,3.49-.58c1.19-.48,2-1.11,2.43-1.9.43-.79.65-1.79.65-3.01v-48.43c0-1.09-.21-2.05-.63-2.89-.42-.83-1.24-1.51-2.45-2.02-.77-.32-1.91-.65-3.42-.99-1.51-.34-2.81-.57-3.9-.7v-3.76h37.89v3.76c-.96.1-2.17.23-3.61.41-1.44.18-2.66.43-3.66.75-1.25.42-2.09,1.07-2.5,1.95-.42.88-.63,1.89-.63,3.01v48.38c0,1.16.22,2.14.65,2.96s1.26,1.49,2.48,2c.67.29,1.79.57,3.35.84,1.56.27,2.86.44,3.92.51v3.75Z"/>
        <path class="cls-2" d="M426.8,147.72h-37.02v-3.75c1.09-.1,2.43-.26,4.02-.48,1.59-.22,2.67-.47,3.25-.72,1.19-.48,2.04-1.14,2.55-1.97.51-.83.77-1.89.77-3.18v-51.03l-23.49,60.03h-6.07c-.29-1.06-1-3.16-2.14-6.31-1.14-3.14-2.06-5.66-2.77-7.56l-17.28-46.94v41.55c0,3.98.26,7,.79,9.07.53,2.07,1.39,3.59,2.58,4.55.8.67,2.24,1.32,4.31,1.93s3.52.96,4.36,1.06v3.75h-29.37v-3.75c.8-.1,2.11-.31,3.92-.65,1.81-.34,3.3-.92,4.45-1.76,1.28-.9,2.15-2.41,2.6-4.55.45-2.13.67-5.18.67-9.12v-33.84c0-2.05-.26-3.76-.77-5.13-.51-1.36-1.28-2.45-2.31-3.25-1.28-.99-2.6-1.64-3.95-1.93s-2.71-.48-4.09-.58v-3.76h31.48l16.84,45.01,14.19-36.53c.48-1.35.95-2.96,1.39-4.82.45-1.86.69-3.08.72-3.66h30.26v3.76c-1.03.06-2.1.19-3.23.38-1.12.19-2.2.45-3.23.77-1.25.42-2.08,1.08-2.48,1.97s-.6,1.89-.6,2.98v48.38c0,1.16.2,2.13.6,2.91.4.79,1.23,1.47,2.48,2.05.64.29,1.69.56,3.15.82,1.46.26,2.59.43,3.39.53v3.75Z"/>
        <path class="cls-2" d="M495.08,96.84h-3.66c-.93-2.59-2.54-5.21-4.81-7.87-2.28-2.65-4.54-4.22-6.79-4.7-.96-.22-2.3-.36-4.02-.41-1.72-.05-3.14-.07-4.26-.07h-9.92v26.33h7.03c1.76,0,3.37-.21,4.81-.63,1.44-.42,2.76-1.22,3.95-2.41.74-.74,1.48-2.04,2.24-3.9.75-1.86,1.24-3.48,1.47-4.86h3.66v28.5h-3.66c-.19-1.35-.68-3.04-1.47-5.08-.79-2.04-1.53-3.44-2.24-4.21-1.06-1.16-2.31-1.95-3.75-2.38-1.44-.43-3.11-.65-5.01-.65h-7.03v19.69c0,2.06.15,3.68.46,4.89.3,1.2.87,2.13,1.71,2.77.8.61,1.9,1.01,3.3,1.2,1.4.19,3.3.29,5.71.29,1.12,0,2.47-.02,4.04-.05,1.57-.03,2.95-.13,4.14-.29,1.35-.16,2.61-.4,3.78-.72,1.17-.32,2.05-.79,2.62-1.4,1.54-1.57,3.27-3.97,5.2-7.2,1.93-3.23,3.19-5.64,3.8-7.25h3.51l-1.3,21.28h-64.08v-3.75c.9-.07,2.12-.19,3.66-.39,1.54-.19,2.63-.42,3.27-.67,1.22-.51,2.04-1.16,2.46-1.95.42-.79.63-1.79.63-3.01v-48.19c0-1.16-.18-2.11-.53-2.86-.35-.75-1.2-1.44-2.55-2.05-.83-.39-2.01-.74-3.51-1.06-1.51-.32-2.65-.53-3.42-.63v-3.76h60.56v17.43Z"/>
        <path class="cls-2" d="M565.97,86.44c4.17,2.73,7.54,6.36,10.11,10.9,2.57,4.54,3.85,10.1,3.85,16.68,0,5.78-1.15,10.81-3.44,15.09-2.3,4.28-5.34,7.79-9.12,10.52-3.85,2.73-8.22,4.76-13.12,6.09-4.89,1.33-10.02,2-15.38,2h-34.42v-3.75c1.03-.03,2.31-.13,3.85-.29,1.54-.16,2.57-.35,3.08-.58,1.16-.48,1.96-1.13,2.41-1.95.45-.82.67-1.8.67-2.96v-48.43c0-1.09-.21-2.08-.63-2.96-.42-.88-1.24-1.6-2.46-2.14-1.22-.55-2.51-.91-3.88-1.11-1.36-.19-2.42-.32-3.15-.38v-3.76h36.35c3.88,0,8.04.5,12.47,1.49,4.43.99,8.7,2.84,12.81,5.54ZM556.14,135.4c1.57-2.57,2.72-5.62,3.44-9.17.72-3.55,1.08-7.63,1.08-12.25s-.48-8.65-1.44-12.37c-.96-3.72-2.38-6.9-4.24-9.53-1.86-2.63-4.18-4.67-6.96-6.11-2.78-1.44-5.93-2.17-9.46-2.17-1.12,0-2.4.02-3.83.07-1.43.05-2.5.09-3.2.12v51.85c0,1.16.15,2.17.46,3.06.3.88.83,1.66,1.56,2.34.74.67,1.64,1.2,2.72,1.56,1.07.37,2.48.55,4.21.55,3.63,0,6.74-.67,9.34-2.02,2.6-1.35,4.7-3.32,6.31-5.92Z"/>
      </g>
      <path class="cls-3" d="M502.17,80.14c-5.28-3.64-17.22-12.95-24.04-29.7-9.71-23.84-1.94-45.28,0-50.21,4.73,3.02,18.94,12.96,25.87,32.26,8.35,23.24.11,43.26-1.83,47.66Z"/>
    </g>
  </g>
</svg>